<svg xmlns="http://www.w3.org/2000/svg" width="390.258" height="290.843" viewBox="0 0 390.258 290.843">
  <g id="Group_993" data-name="Group 993" transform="translate(-329.537 -228.688)">
    <g id="Path_553" data-name="Path 553" transform="translate(329.537 228.688)">
      <path id="Path_596" data-name="Path 596" d="M569.742,496.6l-10.359-25.968q-35.708,32.768-92.95,32.754-53.7,0-92.8-39.686a135.725,135.725,0,0,1-.154-190.47q38.952-39.532,92.952-39.545,57.535,0,92.95,32.769l10.359-25.968h48.946V496.6Zm-93.867-48.982q35.111,0,59.31-22.281t24.2-56.8q0-34.525-24.2-56.8t-59.31-22.274q-34.525,0-58.28,22.274t-23.759,56.8q0,34.525,23.756,56.8t58.28,22.281Z" transform="translate(-323.966 -223.117)" fill="#fff"/>
      <path id="Path_597" data-name="Path 597" d="M472.057,519.531H472c-38.566,0-72.32-14.414-100.324-42.839a146.3,146.3,0,0,1-.163-205.3C399.428,243.06,433.235,228.7,472,228.688c34.974,0,64.663,8.742,88.48,26.019l7.666-19.217h66.68V512.745h-66.68l-7.681-19.258C536.531,510.78,506.866,519.531,472.057,519.531ZM472,249.829c-33.359.006-61.3,11.911-85.423,36.393a125.162,125.162,0,0,0,.15,175.631C410.954,486.438,438.846,498.39,472,498.39h.049c35.234,0,64.081-10.082,85.753-29.97L569.1,458.06,582.478,491.6h31.209V256.63H582.478l-13.41,33.606-11.294-10.45C536.29,259.909,507.435,249.829,472,249.829Zm9.442,213.933h0c-25.685,0-47.727-8.463-65.51-25.141-17.981-16.856-27.1-38.562-27.1-64.508s9.12-47.657,27.1-64.517c17.786-16.676,39.828-25.133,65.51-25.133h.021c26.027,0,48.382,8.435,66.447,25.069,18.319,16.869,27.608,38.6,27.608,64.58s-9.287,47.707-27.608,64.576C529.844,455.327,507.481,463.762,481.446,463.762Zm.019-158.158h-.017c-20.423,0-37.12,6.351-51.052,19.414-13.738,12.883-20.418,28.942-20.42,49.1s6.679,36.2,20.418,49.084c13.932,13.065,30.632,19.418,51.052,19.422l0,10.571,0-10.571c20.85,0,37.908-6.374,52.149-19.486,13.989-12.881,20.788-28.915,20.786-49.02s-6.8-36.149-20.786-49.031C519.36,311.976,502.308,305.6,481.465,305.6Z" transform="translate(-329.537 -228.688)" fill="#fff"/>
    </g>
    <g id="Rectangle_68" data-name="Rectangle 68" transform="translate(633.451 330.517)">
      <rect id="Rectangle_153" data-name="Rectangle 153" width="84.229" height="85.073" transform="translate(1.056 1.057)" fill="#fff"/>
      <path id="Path_598" data-name="Path 598" d="M559.634,364.041H473.291V276.854h86.343Zm-84.229-2.114H557.52V278.968H475.405Z" transform="translate(-473.291 -276.854)" fill="#fff"/>
    </g>
  </g>
</svg>
