<svg xmlns="http://www.w3.org/2000/svg" width="31.102" height="31.101" viewBox="0 0 31.102 31.101">
  <g id="close" transform="translate(0 -0.136)">
    <path id="Path_575" data-name="Path 575" d="M2.016,31.237A2.015,2.015,0,0,1,.591,27.8L27.661.727A2.015,2.015,0,0,1,30.51,3.576L3.44,30.646A2.005,2.005,0,0,1,2.016,31.237Zm0,0" fill="#1fc5b9"/>
    <path id="Path_576" data-name="Path 576" d="M29.086,31.237a2.009,2.009,0,0,1-1.425-.59L.591,3.576A2.015,2.015,0,0,1,3.44.727L30.51,27.8a2.015,2.015,0,0,1-1.425,3.44Zm0,0" transform="translate(0)" fill="#1fc5b9"/>
  </g>
</svg>
