<svg xmlns="http://www.w3.org/2000/svg" width="28.093" height="27.775" viewBox="0 0 28.093 27.775"><defs><style>.a{fill:#fff;stroke:#fff;stroke-width:0.2px;}</style></defs><path class="a" d="M27.331,11.994l0,0L16.081.744a2.538,2.538,0,0,0-3.59,0L1.248,11.986,1.237,12a2.537,2.537,0,0,0,1.689,4.325c.026,0,.052,0,.078,0h.448V24.6a2.975,2.975,0,0,0,2.971,2.971h4.4a.808.808,0,0,0,.808-.808v-6.49a1.357,1.357,0,0,1,1.356-1.355h2.6a1.357,1.357,0,0,1,1.355,1.355v6.49a.808.808,0,0,0,.808.808h4.4A2.974,2.974,0,0,0,25.119,24.6V16.326h.416a2.539,2.539,0,0,0,1.8-4.333ZM26.187,14.44a.917.917,0,0,1-.653.271H24.311a.808.808,0,0,0-.808.808V24.6a1.357,1.357,0,0,1-1.355,1.355H18.555V20.277a2.975,2.975,0,0,0-2.971-2.971h-2.6a2.975,2.975,0,0,0-2.971,2.971v5.682H6.424A1.357,1.357,0,0,1,5.068,24.6V15.519a.808.808,0,0,0-.808-.808h-1.2l-.038,0a.922.922,0,0,1-.636-1.574h0L13.633,1.886a.922.922,0,0,1,1.3,0L26.184,13.131l.005.005A.925.925,0,0,1,26.187,14.44Zm0,0" transform="translate(-0.24 0.1)"/></svg>