<svg xmlns="http://www.w3.org/2000/svg" width="22.521" height="25.853" viewBox="0 0 22.521 25.853"><defs><style>.a{fill:#fff;}</style></defs><path class="a" d="M24.618,16.41l-.49-.394a1.126,1.126,0,0,1-.422-.878V10.588A8.445,8.445,0,0,0,16.9,2.306a1.689,1.689,0,0,0-3.271,0,8.445,8.445,0,0,0-6.813,8.282v4.549a1.126,1.126,0,0,1-.422.878l-.49.394A5.067,5.067,0,0,0,4,20.351v.935a2.252,2.252,0,0,0,2.252,2.252H10.9a4.5,4.5,0,0,0,8.71,0h4.656a2.252,2.252,0,0,0,2.252-2.252v-.923a5.067,5.067,0,0,0-1.9-3.952ZM15.26,24.664a2.252,2.252,0,0,1-1.937-1.126H17.2A2.252,2.252,0,0,1,15.26,24.664Zm9.008-3.378H6.252v-.923a2.815,2.815,0,0,1,1.058-2.2l.49-.394a3.378,3.378,0,0,0,1.267-2.635V10.588a6.193,6.193,0,0,1,12.386,0v4.549a3.378,3.378,0,0,0,1.267,2.641l.49.394a2.815,2.815,0,0,1,1.058,2.19Z" transform="translate(-4 -1.039)"/></svg>