<svg xmlns="http://www.w3.org/2000/svg" width="34.058" height="32.58" viewBox="0 0 34.058 32.58"><defs><style>.a{fill:#fff;stroke:#fff;stroke-miterlimit:10;stroke-width:5px;}</style></defs><path class="a" d="M892.927,331.869l-1.06-2.655a13.509,13.509,0,0,1-9.505,3.349,12.87,12.87,0,0,1-9.49-4.058,13.88,13.88,0,0,1-.016-19.478,12.881,12.881,0,0,1,9.505-4.044,13.442,13.442,0,0,1,9.505,3.35l1.06-2.656h5.005v26.192Zm-9.6-5.009a8.622,8.622,0,0,0,6.065-2.278,8.055,8.055,0,0,0,0-11.617,8.624,8.624,0,0,0-6.065-2.278,8.386,8.386,0,0,0-5.96,2.278,8.159,8.159,0,0,0,0,11.617A8.384,8.384,0,0,0,883.328,326.86Z" transform="translate(-866.374 -302.483)"/></svg>