<svg xmlns="http://www.w3.org/2000/svg" width="31.51" height="23.969" viewBox="0 0 31.51 23.969"><defs><style>.a{fill:#fff;}</style></defs><path class="a" d="M24.915,68.9l-1.177.538L19.394,64.5a8.592,8.592,0,0,0-7.668-2.842l-4.894.688V61.271H0v12.8H6.831V72.393H8.113a7.048,7.048,0,0,0,3.117,2.759l-1.476.674,3.457,7.567H5.539V85.24H31.51V83.393ZM4.985,72.226H1.846V63.117H4.985Zm4.5-1.169-.255-.51h-2.4V64.209l5.151-.723a6.751,6.751,0,0,1,6.025,2.233l3.977,4.521-1.4.638a3.091,3.091,0,0,0-2.508-1.285H13.685V71.44h4.393a1.248,1.248,0,0,1,1.247,1.247v1.247H14.138A5.177,5.177,0,0,1,9.483,71.057ZM12.2,76.738l2.1-.958h6.873V72.687c0-.015,0-.03,0-.045L24,71.348l5.5,12.046H15.241Z" transform="translate(0 -61.271)"/></svg>